<svg width="92" height="24" viewBox="0 0 92 24" fill="none" xmlns="http://www.w3.org/2000/svg">
<path d="M11.8817 0.00164503C9.75881 -0.0336475 7.66213 0.499452 5.78793 1.55103C4.02706 2.54239 2.55846 4.02472 1.54243 5.8362C0.531454 7.71593 0 9.83987 0 12.0007C0 14.1616 0.531454 16.2855 1.54243 18.1653C2.55805 19.9771 4.02676 21.4595 5.78793 22.4504C7.6737 23.4688 9.76214 23.9999 11.8809 23.9999C13.9997 23.9999 16.0882 23.4688 17.9739 22.4504C19.735 21.4594 21.2037 19.977 22.2195 18.1653C23.2582 16.2976 23.7911 14.1654 23.7603 12.0007V0.00164503H11.8817ZM16.8912 15.4505C16.4107 16.4121 15.6902 17.2172 14.8075 17.7788C13.9248 18.3404 12.9134 18.6372 11.8824 18.6372C10.8514 18.6372 9.83992 18.3404 8.9572 17.7788C8.07448 17.2172 7.35399 16.4121 6.87351 15.4505C6.37112 14.3792 6.1098 13.2003 6.1098 12.0052C6.1098 10.8102 6.37112 9.63124 6.87351 8.55998C7.3489 7.59802 8.06793 6.79381 8.95073 6.23666C9.611 5.81504 10.3461 5.54023 11.1108 5.42912C11.8755 5.318 12.6537 5.37293 13.3976 5.59053C14.1414 5.80814 14.8352 6.18383 15.4362 6.69448C16.0372 7.20514 16.5329 7.83996 16.8926 8.55998C17.395 9.63124 17.6564 10.8102 17.6564 12.0052C17.6564 13.2003 17.395 14.3792 16.8926 15.4505H16.8912Z" fill="#00BCC3"/>
<path d="M28.1042 15.2909L25.8281 17.9999V9.97646L34.1625 0H40.8626L32.0674 10.629L41.3248 23.9999H34.2517L28.1042 15.2909Z" fill="#00BCC3"/>
<path d="M62.6504 10.629L71.8358 0H64.8341L57.2004 8.70896L50.7776 0H43.3906L53.0609 13.3709L43.8727 23.9999H50.8743L58.508 15.2909L64.9309 23.9999H72.3178L62.6504 10.629Z" fill="#00BCC3"/>
<path d="M79.8367 18.7499V14.3609H90.1285V9.28645H79.8367V5.23647H91.9476V0H73.3516V23.9999H89.7778L91.9476 18.7499H79.8367Z" fill="#00BCC3"/>
</svg>
